# xmcd
#
# Track frame offsets: 
#        150
#        18120
#        35194
#        52849
#        70797
#        86610
#        107229
#        129709
#        153400
#        173291
#        193736
#        215829
#
# Disc length: 3130 seconds
#
# Revision: 0
# Processed by: cddbd v1.5.1PL0 Copyright (c) Steve Scherf et al.
# Submitted via: ExactAudioCopy v0.95a4
#
DISCID=a00c380c
DTITLE=Ray Charles - Genius Loves Company
DYEAR=2004
DGENRE=Soul
TTITLE0=Here We Go Again - Features Norah Jones
TTITLE1=Sweet Potato Pie - Features James Taylor
TTITLE2=You Don't Know Me - Features Diana Krall
TTITLE3=Sorry Seems To Be The Hardest Word - Features Elton John
TTITLE4=Fever - Features Natalie Cole
TTITLE5=Do I Ever Cross Your Mind - Features Bonnie Raitt
TTITLE6=It Was A Very Good Year - Features Willie Nelson
TTITLE7=Hey Girl - Features Michael McDonald
TTITLE8=Sinner's Prayer - Features B.B. King
TTITLE9=Heaven Help Us All - Features Gladys Knight
TTITLE10=Somewhere Over The Rainbow - Features Johnny Mathis
TTITLE11=Crazy Love - Features Van Morrison
EXTD=
EXTT0=
EXTT1=
EXTT2=
EXTT3=
EXTT4=
EXTT5=
EXTT6=
EXTT7=
EXTT8=
EXTT9=
EXTT10=
EXTT11=
PLAYORDER=
